# xmcd
#
# Track frame offsets:
# 150
# 12848
# 33571
# 50753
# 67619
# 81290
# 102445
# 115357
# 132338
# 152196
# 167527
# 183627
# 201565
# 215175
#
# Disc length: 3051 seconds
#
#
# Revision: 0
# Processed by: cddbd v1.5.2PL0 Copyright (c) Steve Scherf et al.
# Submitted via: FreeRIP 2.945 
#
DISCID=ce0be90e
DTITLE=Gunter Gabriel - Seine grossen Erfolge
DYEAR=1900
DGENRE=Country
TTITLE0=Hey Boss, ich brauch' mehr Geld
TTITLE1=Er ist ein Kerl
TTITLE2=Mit dem Hammer in der Hand
TTITLE3=Komm unter meine Decke
TTITLE4=Ohne Moos nichts los
TTITLE5=Franky's Curry Station
TTITLE6=Papa trinkt Bier
TTITLE7=Hey Yvonne
TTITLE8=Mädchen ab 30
TTITLE9=Ich werd' gesucht in Bremerhaven
TTITLE10=Willy Klein, der Fernsehmann
TTITLE11=Intercity-Linie Nr. 4
TTITLE12=Wie ein Baum
TTITLE13=Morgen
EXTD=
EXTT0=
EXTT1=
EXTT2=
EXTT3=
EXTT4=
EXTT5=
EXTT6=
EXTT7=
EXTT8=
EXTT9=
EXTT10=
EXTT11=
EXTT12=
EXTT13=
PLAYORDER=
